<svg width="63" height="67" viewBox="0 0 63 67" fill="none" xmlns="http://www.w3.org/2000/svg">
<path d="M41.1988 17.8173V17.7886H18.2166C16.0142 17.7886 14.2426 17.9178 14.2426 20.0964L14.166 32.2003C14.166 34.5081 14.9608 34.8385 15.6024 34.8385H43.181C43.8274 34.8385 44.6174 34.5081 44.6174 32.2003L44.694 20.0964C44.7036 18.0998 43.181 17.8508 41.1988 17.8173ZM40.2412 31.4438H18.5566L18.638 21.0923H40.3274L40.2412 31.4438Z" fill="currentColor"/>
<path d="M5.26555 19.8953C7.04188 16.9268 7.10891 11.6792 6.89345 8.1217C6.82642 7.07792 5.71562 7.07792 5.53846 8.1217C5.07361 11.1956 3.78468 14.0862 1.80864 16.4863C-2.32337 21.5232 2.25392 24.9035 5.26555 19.8953Z" fill="currentColor"/>
<path d="M8.68395 12.9814C8.87438 13.1835 9.10347 13.3452 9.35761 13.4571C9.61176 13.5689 9.88578 13.6286 10.1634 13.6325H19.3467L50.8132 13.9821C53.8488 14.6619 52.8337 19.0477 52.2496 20.1202C51.9862 20.599 52.9007 21.389 53.3412 21.0778C54.1025 20.508 55.582 16.8117 56.5061 16.2899C57.4301 15.768 57.5929 14.2645 57.2003 13.2878C56.6401 11.8945 54.8638 10.439 51.5027 10.3097C51.4437 10.3053 51.3845 10.3053 51.3255 10.3097H9.41172C8.87068 10.3097 7.28587 11.0662 8.15249 12.2632L8.68395 12.9814Z" fill="currentColor"/>
<path d="M17.7945 3.88914C19.3723 3.29747 21.0051 2.86441 22.6687 2.5964C23.0661 2.6347 25.01 2.85494 26.1447 3.64017C28.3376 5.04783 34.4949 8.16479 41.064 6.99174C49.261 5.48832 47.0058 -2.33041 38.2247 0.686C28.4334 4.02799 26.6187 3.1518 25.6994 2.85016C25.551 2.78791 25.144 2.57246 22.6016 1.56698C21.0168 0.815275 18.6994 0.0827175 16.2767 0.527998C11.9101 1.32759 13.1119 5.4979 17.7945 3.88914Z" fill="currentColor"/>
<path d="M61.2846 60.3393C55.539 58.1751 44.4357 56.0301 34.5486 42.8393H58.7421C59.6997 42.8393 60.2073 42.3605 60.3222 41.7332C60.3611 41.4992 60.3509 41.2596 60.2924 41.0297C60.2339 40.7997 60.1283 40.5844 59.9822 40.3974C59.63 39.8376 59.2244 39.3132 58.7709 38.8317C58.2442 38.262 57.5404 37.2948 56.5732 37.1272C56.1806 37.0554 55.9412 37.223 55.2326 37.606L53.2025 38.6881C51.2873 39.5164 50.8851 39.6457 48.7114 39.6457H31.7812L31.8051 37.1224C31.7849 36.8382 31.6841 36.5657 31.5145 36.3367C31.3449 36.1077 31.1135 35.9318 30.8475 35.8297L29.4782 35.3174C27.9987 34.762 27.3954 35.236 27.3523 36.409V38.6115V39.6457H1.43508C0.142335 39.6457 -0.4801 40.8954 0.4344 41.6088L1.30102 42.2695C1.8419 42.6562 2.49404 42.8563 3.15875 42.8393H22.3776C10.1923 61.9145 -0.69077 64.3324 0.0657276 65.1799C0.424824 65.6108 2.49322 65.2996 5.07393 64.0356C12.9836 60.1621 21.9706 52.2572 27.3236 43.3755L27.0794 62.3885C27.0878 62.6561 27.148 62.9195 27.2565 63.1641C27.4237 63.5694 27.6409 63.9522 27.9029 64.3037L29.1334 65.9843C29.22 66.1366 29.3388 66.2683 29.4815 66.3701C29.6242 66.4719 29.7873 66.5413 29.9596 66.5737C30.1318 66.6061 30.309 66.6005 30.4789 66.5574C30.6488 66.5143 30.8073 66.4347 30.9433 66.3242C31.1159 66.1929 31.2559 66.0234 31.3522 65.8291C31.4485 65.6347 31.4987 65.4207 31.4987 65.2038L31.7333 43.658C34.9508 48.8146 42.6833 59.1518 55.0602 63.8871C55.8734 64.1878 56.7401 64.3163 57.6056 64.2644C58.471 64.2125 59.3162 63.9813 60.0876 63.5855L61.4186 62.896C61.6667 62.7787 61.8743 62.5902 62.015 62.3546C62.1558 62.1189 62.2232 61.8468 62.2089 61.5727C62.1945 61.2986 62.0989 61.035 61.9343 60.8154C61.7698 60.5957 61.5436 60.43 61.2846 60.3393Z" fill="currentColor"/>
</svg>
