<svg width="175" height="80" viewBox="0 0 175 80" fill="none" xmlns="http://www.w3.org/2000/svg">
<path fill-rule="evenodd" clip-rule="evenodd" d="M17.3363 59.3704C26.0271 62.9951 35.2802 62.6542 41.8178 60.9794C48.2119 59.3465 56.2329 55.2313 60.8863 46.2892C63.4669 41.1625 64.6158 35.4343 64.212 29.709C63.8112 21.9811 61.329 14.3908 55.7544 8.86404C53.2284 6.3263 50.2397 4.29593 46.9498 2.8827C31.7453 -3.32592 11.3788 0.256877 3.39974 15.9459C-0.0275641 22.6869 -0.308687 28.1359 0.193745 34.9546C0.386549 36.8779 0.726488 38.7835 1.21057 40.6548C1.88646 43.8249 4.25507 48.3827 6.39639 51.0443C9.29876 54.6856 13.0571 57.5522 17.3363 59.3884V59.3704ZM71.6228 61.117H80.541C80.8161 60.142 80.7324 60.8897 80.7324 59.4541L80.7862 32.5919C81.1089 30.7866 81.8347 29.0774 82.9096 27.5916C85.344 24.3796 89.3515 21.694 93.5863 22.5314C94.7826 22.7646 96.2659 23.7276 97.9527 24.2839C99.6394 24.8401 101.404 24.9658 102.851 24.0147C103.666 23.4301 104.287 22.6158 104.637 21.6762C104.986 20.7365 105.048 19.7139 104.813 18.7392C104.269 16.6038 101.984 15.0607 99.1071 14.8932C90.7332 14.4147 83.4719 19.9295 81.1631 27.8488C81.0899 28.3363 80.8829 28.7939 80.5649 29.1706C80.5649 23.5601 79.2072 17.5608 71.7425 15.8322L71.6647 61.111L71.6228 61.117ZM127.07 15.928H136.329C136.329 15.928 135.557 17.6446 135.276 18.2427C134.935 18.9725 134.612 19.6842 134.247 20.4738C133.536 21.987 132.914 23.3986 132.196 24.9598C130.796 28.0043 129.528 31.0547 128.164 34.1471C125.449 40.3019 122.901 46.4626 120.108 52.5397C118.11 56.8881 113.911 67.493 111.871 70.7409C108.498 76.0643 103.557 79.8804 94.645 80V70.8067C95.6498 72.1585 99.7052 74.9039 102.361 74.9039C105.675 74.9039 108.552 72.6609 110.926 68.8628C111.736 67.4999 112.452 66.083 113.067 64.622C114.036 62.4687 114.557 62.3551 113.486 60.0941C112.152 57.2829 110.908 54.346 109.658 51.487C107.11 45.6771 104.556 39.8812 101.996 34.0993C100.644 31.0368 100.668 31.0428 99.2686 27.9983C102.373 28.9613 106.362 29.362 108.241 24.5829C108.522 25.2289 108.372 24.894 108.695 25.5818C109.413 27.1489 110.292 29.1706 111.177 31.2461C112.134 33.4772 114.168 38.1785 114.982 39.8533C115.442 40.7983 118.798 49.0406 119.372 49.4892L122.315 43.3583C126.848 33.6686 127.417 27.1489 127.1 15.928H127.07ZM139.152 19.9534C139.236 20.6353 140.097 22.1844 140.917 22.1904C141.413 22.0827 142.448 21.3411 143.255 21.042C146.031 20.0132 150.056 20.1209 151.031 22.7407C152.915 27.759 138.093 30.654 132.525 43.2208C130.916 46.8574 131.448 51.3973 133.29 54.5853C138.877 64.1973 148.967 64.4007 158.268 58.6527C158.867 58.2758 159.8 57.7135 159.991 57.5461C160.147 60.9255 162.114 62.5286 165.326 62.379C168.317 62.2355 171.409 61.7809 174.436 57.9468C173.353 58.3476 171.188 58.7722 169.974 57.7016C168.263 56.1883 169.005 44.6084 169.035 42.2219C169.065 39.7097 169.035 37.2754 168.867 34.9546C167.946 23.285 159.094 11.6872 146.019 15.7605C144.099 16.4439 142.298 17.4248 140.683 18.6674C140.144 19.074 139.629 19.5114 139.14 19.9773L139.152 19.9534ZM148.597 19.3014C149.296 15.9639 154.183 14.8513 156.857 17.6924C159.076 20.0491 159.345 24.565 159.471 28.4588C159.608 32.9269 159.656 37.371 159.638 41.863C159.638 46.1098 159.848 51.0624 159.566 55.2194C156.959 56.1405 155.266 57.241 151.958 57.1872C149.421 57.1838 146.959 56.3239 144.972 54.7468C144.077 54.0138 143.354 53.0928 142.855 52.0492C139.529 45.5834 142.855 39.8593 146.838 35.1759C148.363 33.3815 149.35 32.4963 151.222 30.2413C152.419 28.8237 154.249 26.174 153.711 23.4524C152.975 19.7201 149.225 19.6483 148.597 19.2655V19.3014ZM32.1341 1.3156C46.7584 1.21391 53.1884 19.7321 53.0269 31.5512C53.1644 42.7961 46.561 61.0272 32.1341 60.8597C17.6951 61.0272 11.0977 42.7961 11.2413 31.5512C11.0858 20.1986 17.2944 1.20793 32.1341 1.3156Z" fill="currentColor"/>
</svg>
