<svg width="67" height="67" viewBox="0 0 67 67" fill="none" xmlns="http://www.w3.org/2000/svg">
<path d="M66.7058 8.97187C66.6756 8.85968 66.6388 8.74937 66.5957 8.6415C65.9397 7.08062 65.2455 6.66886 64.1682 5.86448C63.5571 5.44039 62.8408 5.19318 62.0982 5.1501C61.3557 5.10701 60.6156 5.26972 59.9596 5.6203L58.1545 6.42467C56.2019 7.28862 54.0894 7.73232 51.9541 7.727H32.5581C31.2701 7.727 30.6429 9.01017 31.567 9.74273L32.4288 10.4274C32.9586 10.8293 33.6072 11.0432 34.2722 11.0355H44.6621C43.0916 52.9923 29.0868 64.7228 31.4329 66.1353C32.5437 66.8343 35.3064 63.1285 35.8331 62.257C43.7954 49.1668 48.7605 35.6169 50.2783 11.0259H60.6873C60.9363 17.2838 58.9828 45.9157 58.7722 51.5799C58.4609 60.0977 54.5731 61.9793 50.7715 62.3097C49.6703 62.4055 45.9021 61.965 45.5047 62.4486C45.0259 63.0375 46.199 64.0047 47.2667 64.6558C51.6716 67.3371 56.2393 66.1832 59.318 64.1052C64.0533 60.9212 64.0293 54.0026 64.4076 43.5505L66.0738 17.9828C66.1265 16.5033 66.3419 13.0321 66.6196 10.8631C66.7154 10.0875 66.883 9.56557 66.7345 8.99581L66.7058 8.97187Z" fill="currentColor"/>
<path d="M16.9637 5.98412C18.7927 11.0594 23.2791 9.02926 20.9521 4.80149C19.5157 2.18727 16.8823 0.746094 15.0821 0.0135365C14.9933 -0.00803074 14.9002 -0.00375582 14.8138 0.0258568C14.7274 0.0554694 14.6513 0.109184 14.5944 0.180661C14.5375 0.252138 14.5023 0.338394 14.4928 0.429251C14.4834 0.520107 14.5001 0.611772 14.541 0.693426C15.13 1.56005 15.92 3.09219 16.9637 5.98412Z" fill="currentColor"/>
<path d="M26.5489 34.9753C26.6916 32.852 27.3154 30.789 28.3732 28.9425C30.8198 24.9972 26.2329 23.8672 23.9634 27.2188C22.3451 29.6128 23.8773 34.1661 25.0264 35.794C25.7517 36.7946 26.1723 37.9834 26.2377 39.2174C26.5394 45.7865 22.7904 46.7202 22.4888 49.2721C21.6604 56.2386 34.8752 52.3556 27.3725 38.8536C26.71 37.6746 26.4228 36.3217 26.5489 34.9753Z" fill="currentColor"/>
<path d="M27.5978 18.4041C28.2633 17.2454 29.7811 14.2864 29.513 13.032V12.9985C29.4784 12.7738 29.3707 12.5669 29.2066 12.4096C29.0623 12.255 28.8872 12.1325 28.6925 12.05C28.4978 11.9676 28.288 11.9269 28.0766 11.9308H25.9699C25.8376 11.9212 25.7048 11.9212 25.5725 11.9308L5.65462 11.9978C5.44171 11.9932 5.23023 12.0334 5.0339 12.1159C4.83758 12.1984 4.66081 12.3213 4.51508 12.4766C4.40546 12.6099 4.32784 12.7665 4.28815 12.9345C4.24847 13.1024 4.24779 13.2772 4.28615 13.4455C4.32452 13.6138 4.40092 13.771 4.50949 13.9052C4.61806 14.0393 4.75592 14.1468 4.91248 14.2194L6.4542 15.1004C6.98807 15.4231 7.602 15.589 8.22575 15.5792L22.6806 15.8904C18.8981 24.8918 7.73259 33.7112 2.06365 37.848C0.0383406 39.1359 -1.08204 40.6441 1.50824 40.0121C2.78184 39.7057 8.75242 36.086 14.7996 31.3938L14.5842 62.5155C14.5962 62.7826 14.6562 63.0454 14.7613 63.2912C14.9173 63.6888 15.1198 64.0664 15.3646 64.4164L16.5137 66.0634C16.6074 66.2141 16.7323 66.3429 16.8801 66.4412C17.0278 66.5394 17.1949 66.6048 17.3701 66.633C17.5453 66.6611 17.7245 66.6513 17.8956 66.6043C18.0667 66.5572 18.2257 66.474 18.3619 66.3603C18.5173 66.2156 18.6403 66.0398 18.7228 65.8442C18.8053 65.6486 18.8455 65.4378 18.8406 65.2255L18.6013 28.2912C22.3933 25.045 25.7976 21.5402 27.5978 18.4041Z" fill="currentColor"/>
</svg>
